<?xml version="1.0" encoding="UTF-8" standalone="no"?>
<!-- Created with Inkscape (http://www.inkscape.org/) -->

<svg
   xmlns:dc="http://purl.org/dc/elements/1.1/"
   xmlns:cc="http://creativecommons.org/ns#"
   xmlns:rdf="http://www.w3.org/1999/02/22-rdf-syntax-ns#"
   xmlns:svg="http://www.w3.org/2000/svg"
   xmlns="http://www.w3.org/2000/svg"
   xmlns:sodipodi="http://sodipodi.sourceforge.net/DTD/sodipodi-0.dtd"
   xmlns:inkscape="http://www.inkscape.org/namespaces/inkscape"
   width="355"
   height="48"
   viewBox="0 0 93.927081 12.7"
   version="1.1"
   id="svg8"
   inkscape:version="0.92.2 2405546, 2018-03-11"
   sodipodi:docname="Sign-in-with-DevZone.svg">
  <defs
     id="defs2" />
  <sodipodi:namedview
     id="base"
     pagecolor="#ffffff"
     bordercolor="#666666"
     borderopacity="1.0"
     inkscape:pageopacity="0.0"
     inkscape:pageshadow="2"
     inkscape:zoom="1.4142136"
     inkscape:cx="84.895985"
     inkscape:cy="131.06692"
     inkscape:document-units="mm"
     inkscape:current-layer="layer1"
     showgrid="false"
     units="px"
     inkscape:window-width="1920"
     inkscape:window-height="1135"
     inkscape:window-x="1920"
     inkscape:window-y="36"
     inkscape:window-maximized="1" />
  <metadata
     id="metadata5">
    <rdf:RDF>
      <cc:Work
         rdf:about="">
        <dc:format>image/svg+xml</dc:format>
        <dc:type
           rdf:resource="http://purl.org/dc/dcmitype/StillImage" />
        <dc:title></dc:title>
      </cc:Work>
    </rdf:RDF>
  </metadata>
  <g
     inkscape:label="Layer 1"
     inkscape:groupmode="layer"
     id="layer1"
     transform="translate(0,-284.29998)">
    <rect
       style="opacity:1;vector-effect:none;fill:#333f48;fill-opacity:1;stroke:none;stroke-width:0.13229167;stroke-linecap:round;stroke-linejoin:miter;stroke-miterlimit:4;stroke-dasharray:none;stroke-dashoffset:0;stroke-opacity:1"
       id="rect4518"
       width="93.794792"
       height="12.567708"
       x="0.06614583"
       y="284.36612"
       rx="0.5284214" />
    <path
       style="color:#000000;font-style:normal;font-variant:normal;font-weight:normal;font-stretch:normal;font-size:medium;line-height:normal;font-family:sans-serif;font-variant-ligatures:normal;font-variant-position:normal;font-variant-caps:normal;font-variant-numeric:normal;font-variant-alternates:normal;font-feature-settings:normal;text-indent:0;text-align:start;text-decoration:none;text-decoration-line:none;text-decoration-style:solid;text-decoration-color:#000000;letter-spacing:normal;word-spacing:normal;text-transform:none;writing-mode:lr-tb;direction:ltr;text-orientation:mixed;dominant-baseline:auto;baseline-shift:baseline;text-anchor:start;white-space:normal;shape-padding:0;clip-rule:nonzero;display:inline;overflow:visible;visibility:visible;opacity:1;isolation:auto;mix-blend-mode:normal;color-interpolation:sRGB;color-interpolation-filters:linearRGB;solid-color:#000000;solid-opacity:1;vector-effect:none;fill:#242d33;fill-opacity:1;fill-rule:nonzero;stroke:none;stroke-width:0.13229167;stroke-linecap:round;stroke-linejoin:miter;stroke-miterlimit:4;stroke-dasharray:none;stroke-dashoffset:0;stroke-opacity:1;color-rendering:auto;image-rendering:auto;shape-rendering:auto;text-rendering:auto;enable-background:accumulate"
       d="M 0.59375,284.30078 C 0.26550389,284.30078 0,284.56629 0,284.89453 v 11.51172 C 0,296.7345 0.26550389,297 0.59375,297 h 92.738281 c 0.328246,0 0.595703,-0.2655 0.595703,-0.59375 v -11.51172 c 0,-0.32824 -0.267457,-0.59375 -0.595703,-0.59375 z m 0,0.13086 h 92.738281 c 0.257245,0 0.462891,0.20565 0.462891,0.46289 v 11.51172 c 0,0.25724 -0.205646,0.46094 -0.462891,0.46094 H 0.59375 c -0.2572448,0 -0.4609375,-0.2037 -0.4609375,-0.46094 v -11.51172 c 0,-0.25724 0.2036927,-0.46289 0.4609375,-0.46289 z"
       id="rect6372"
       inkscape:connector-curvature="0" />
    <path
       style="color:#000000;font-style:normal;font-variant:normal;font-weight:normal;font-stretch:normal;font-size:medium;line-height:normal;font-family:sans-serif;font-variant-ligatures:normal;font-variant-position:normal;font-variant-caps:normal;font-variant-numeric:normal;font-variant-alternates:normal;font-feature-settings:normal;text-indent:0;text-align:start;text-decoration:none;text-decoration-line:none;text-decoration-style:solid;text-decoration-color:#000000;letter-spacing:normal;word-spacing:normal;text-transform:none;writing-mode:lr-tb;direction:ltr;text-orientation:mixed;dominant-baseline:auto;baseline-shift:baseline;text-anchor:start;white-space:normal;shape-padding:0;clip-rule:nonzero;display:inline;overflow:visible;visibility:visible;opacity:1;isolation:auto;mix-blend-mode:normal;color-interpolation:sRGB;color-interpolation-filters:linearRGB;solid-color:#000000;solid-opacity:1;vector-effect:none;fill:#242d33;fill-opacity:1;fill-rule:nonzero;stroke:none;stroke-width:0.12649506;stroke-linecap:butt;stroke-linejoin:miter;stroke-miterlimit:4;stroke-dasharray:none;stroke-dashoffset:0;stroke-opacity:1;color-rendering:auto;image-rendering:auto;shape-rendering:auto;text-rendering:auto;enable-background:accumulate"
       d="M 12.699219,284.30078 V 297 h 0.126953 v -12.69922 z"
       id="path4520"
       inkscape:connector-curvature="0" />
    <path
       inkscape:connector-curvature="0"
       class="cls-1"
       d="M 7.7405841,295.0156 H 7.0637467 a 1.3865242,1.3865242 0 0 1 -1.3876065,-1.38761 v -1.79371 c 0,-0.2368 -0.067501,-0.43967 -0.2368027,-0.60897 a 0.79199009,0.79199009 0 0 0 -0.5754029,-0.2368 H 4.7625 v -0.71077 h 0.1014346 c 0.2371646,0 0.4400348,-0.0679 0.6093344,-0.23717 0.1692996,-0.1693 0.2368027,-0.37217 0.2368027,-0.60897 v -1.75977 a 1.3865242,1.3865242 0 0 1 1.3876075,-1.38762 h 0.6768375 v 0.60933 H 7.0976792 a 0.69344255,0.69344255 0 0 0 -0.6768375,0.67684 v 1.82728 a 1.3182989,1.3182989 0 0 1 -0.2368027,0.77828 c -0.1692996,0.23716 -0.3725317,0.4061 -0.6432659,0.47396 0.2707342,0.10144 0.5078978,0.27075 0.6432659,0.47361 a 1.4504176,1.4504176 0 0 1 0.2028702,0.7447 v 1.89515 a 0.69380354,0.69380354 0 0 0 0.6768375,0.67684 h 0.6768374 z"
       id="path4579"
       style="fill:#d0df00;fill-opacity:1;stroke-width:0.036098" />
    <g
       aria-label="Sign in with DevZone"
       style="font-style:normal;font-variant:normal;font-weight:normal;font-stretch:normal;font-size:5.75095797px;line-height:1.25;font-family:'GT Eesti Display';-inkscape-font-specification:'GT Eesti Display';letter-spacing:0px;word-spacing:0px;fill:#000000;fill-opacity:1;stroke:none;stroke-width:0.14377394"
       id="text5702"
       transform="translate(0,0.10523738)">
      <path
         d="m 19.136069,288.52079 q 0.534839,0 1.063927,0.27029 l -0.270295,0.56935 q -0.189782,-0.10927 -0.402567,-0.17253 -0.212786,-0.0633 -0.408318,-0.0633 -0.460077,0 -0.460077,0.34505 0,0.13228 0.07476,0.24154 0.07476,0.10352 0.24154,0.23579 l 0.71887,0.5521 q 0.322053,0.24729 0.471578,0.50608 0.149525,0.25304 0.149525,0.5866 0,0.54059 -0.350808,0.83389 -0.350809,0.2933 -0.937407,0.2933 -0.36231,0 -0.701616,-0.10352 -0.339307,-0.10352 -0.5981,-0.2703 l 0.270295,-0.56359 q 0.569345,0.3278 1.035172,0.3278 0.310552,0 0.471579,-0.13227 0.166778,-0.13802 0.166778,-0.35081 0,-0.16102 -0.103518,-0.29905 -0.09777,-0.13802 -0.322053,-0.3163 l -0.684364,-0.54059 q -0.276046,-0.21278 -0.414069,-0.44282 -0.138023,-0.23579 -0.138023,-0.53484 0,-0.44858 0.29905,-0.70737 0.299049,-0.26454 0.828138,-0.26454 z"
         style="font-style:normal;font-variant:normal;font-weight:normal;font-stretch:normal;font-family:'GT Eesti Display';-inkscape-font-specification:'GT Eesti Display';fill:#ffffff;fill-opacity:1;stroke-width:0.14377394"
         id="path6333"
         inkscape:connector-curvature="0" />
      <path
         d="m 20.890111,289.97578 h 0.563594 v 2.65694 h -0.563594 z m 0.626854,-0.62111 H 20.82685 v -0.69011 h 0.690115 z"
         style="font-style:normal;font-variant:normal;font-weight:normal;font-stretch:normal;font-family:'GT Eesti Display';-inkscape-font-specification:'GT Eesti Display';fill:#ffffff;fill-opacity:1;stroke-width:0.14377394"
         id="path6335"
         inkscape:connector-curvature="0" />
      <path
         d="m 23.515513,293.86918 q -0.396816,0 -1.02367,-0.12077 l 0.109268,-0.54634 q 0.54059,0.12077 0.914402,0.12077 0.258793,0 0.408318,-0.069 0.149525,-0.069 0.212786,-0.23578 0.06901,-0.16678 0.06901,-0.46008 v -0.3163 h -0.0115 q -0.132272,0.22428 -0.356559,0.3508 -0.224288,0.12653 -0.54059,0.12653 -0.35656,0 -0.649858,-0.17253 -0.293299,-0.17253 -0.471579,-0.48883 -0.172529,-0.32206 -0.172529,-0.75338 0,-0.43132 0.172529,-0.74762 0.17828,-0.32206 0.471579,-0.49459 0.293298,-0.17253 0.649858,-0.17253 0.316302,0 0.54059,0.12653 0.224287,0.12652 0.356559,0.3508 h 0.0115 v -0.39106 h 0.563594 v 2.65694 q -0.0115,0.49458 -0.17828,0.76488 -0.161027,0.27604 -0.431322,0.37381 -0.264544,0.0978 -0.644107,0.0978 z m -0.09777,-1.70229 q 0.368061,0 0.592349,-0.23579 0.224287,-0.24154 0.224287,-0.62685 0,-0.38531 -0.224287,-0.6211 -0.224288,-0.24154 -0.592349,-0.24154 -0.368061,0 -0.592349,0.24154 -0.224287,0.23579 -0.224287,0.6211 0,0.38531 0.224287,0.62685 0.224288,0.23579 0.592349,0.23579 z"
         style="font-style:normal;font-variant:normal;font-weight:normal;font-stretch:normal;font-family:'GT Eesti Display';-inkscape-font-specification:'GT Eesti Display';fill:#ffffff;fill-opacity:1;stroke-width:0.14377394"
         id="path6337"
         inkscape:connector-curvature="0" />
      <path
         d="m 26.898874,289.88951 q 0.460076,0 0.730371,0.2703 0.270295,0.26454 0.270295,0.83964 v 1.63327 h -0.563593 v -1.5355 q 0,-0.64411 -0.609602,-0.64411 -0.327805,0 -0.517586,0.21853 -0.189782,0.21854 -0.189782,0.69012 v 1.27096 h -0.563594 v -2.65694 h 0.563594 v 0.40257 h 0.0115 q 0.276046,-0.48884 0.868395,-0.48884 z"
         style="font-style:normal;font-variant:normal;font-weight:normal;font-stretch:normal;font-family:'GT Eesti Display';-inkscape-font-specification:'GT Eesti Display';fill:#ffffff;fill-opacity:1;stroke-width:0.14377394"
         id="path6339"
         inkscape:connector-curvature="0" />
      <path
         d="m 30.24665,289.97578 h 0.563594 v 2.65694 H 30.24665 Z m 0.626855,-0.62111 H 30.18339 v -0.69011 h 0.690115 z"
         style="font-style:normal;font-variant:normal;font-weight:normal;font-stretch:normal;font-family:'GT Eesti Display';-inkscape-font-specification:'GT Eesti Display';fill:#ffffff;fill-opacity:1;stroke-width:0.14377394"
         id="path6341"
         inkscape:connector-curvature="0" />
      <path
         d="m 32.975569,289.88951 q 0.460077,0 0.730372,0.2703 0.270295,0.26454 0.270295,0.83964 v 1.63327 h -0.563594 v -1.5355 q 0,-0.64411 -0.609602,-0.64411 -0.327804,0 -0.517586,0.21853 -0.189781,0.21854 -0.189781,0.69012 v 1.27096 h -0.563594 v -2.65694 h 0.563594 v 0.40257 h 0.0115 q 0.276046,-0.48884 0.868394,-0.48884 z"
         style="font-style:normal;font-variant:normal;font-weight:normal;font-stretch:normal;font-family:'GT Eesti Display';-inkscape-font-specification:'GT Eesti Display';fill:#ffffff;fill-opacity:1;stroke-width:0.14377394"
         id="path6343"
         inkscape:connector-curvature="0" />
      <path
         d="m 39.954896,289.97578 -0.891399,2.65694 h -0.517586 l -0.632605,-1.90357 -0.638357,1.90357 h -0.517586 l -0.891399,-2.65694 h 0.621104 l 0.534839,1.91507 0.615353,-1.91507 h 0.546341 l 0.615352,1.91507 0.534839,-1.91507 z"
         style="font-style:normal;font-variant:normal;font-weight:normal;font-stretch:normal;font-family:'GT Eesti Display';-inkscape-font-specification:'GT Eesti Display';fill:#ffffff;fill-opacity:1;stroke-width:0.14377394"
         id="path6345"
         inkscape:connector-curvature="0" />
      <path
         d="m 40.355755,289.97578 h 0.563594 v 2.65694 h -0.563594 z m 0.626855,-0.62111 h -0.690115 v -0.69011 h 0.690115 z"
         style="font-style:normal;font-variant:normal;font-weight:normal;font-stretch:normal;font-family:'GT Eesti Display';-inkscape-font-specification:'GT Eesti Display';fill:#ffffff;fill-opacity:1;stroke-width:0.14377394"
         id="path6347"
         inkscape:connector-curvature="0" />
      <path
         d="m 42.417564,290.45311 v 1.39173 q 0,0.14377 0.06326,0.21279 0.06901,0.0633 0.212785,0.0633 h 0.138023 v 0.51758 H 42.57284 q -0.350808,0 -0.534839,-0.17828 -0.184031,-0.17828 -0.184031,-0.50608 v -1.501 h -0.471578 v -0.47733 h 0.471578 v -1.06393 h 0.563594 v 1.06393 h 0.54059 v 0.47733 z"
         style="font-style:normal;font-variant:normal;font-weight:normal;font-stretch:normal;font-family:'GT Eesti Display';-inkscape-font-specification:'GT Eesti Display';fill:#ffffff;fill-opacity:1;stroke-width:0.14377394"
         id="path6349"
         inkscape:connector-curvature="0" />
      <path
         d="m 44.008243,290.37835 h 0.0115 q 0.276046,-0.48884 0.868395,-0.48884 0.454325,0 0.72462,0.2703 0.276046,0.26454 0.276046,0.83964 v 1.63327 h -0.563593 v -1.5355 q 0,-0.64411 -0.609602,-0.64411 -0.327805,0 -0.517586,0.21853 -0.189782,0.21854 -0.189782,0.69012 v 1.27096 h -0.563594 v -4.02567 h 0.563594 z"
         style="font-style:normal;font-variant:normal;font-weight:normal;font-stretch:normal;font-family:'GT Eesti Display';-inkscape-font-specification:'GT Eesti Display';fill:#ffffff;fill-opacity:1;stroke-width:0.14377394"
         id="path6351"
         inkscape:connector-curvature="0" />
      <path
         d="m 49.56933,288.60705 q 0.580847,0 1.040923,0.24729 0.460077,0.24154 0.71887,0.69587 0.264544,0.45432 0.264544,1.06968 0,0.61535 -0.264544,1.06967 -0.258793,0.45433 -0.71887,0.70162 -0.460076,0.24154 -1.040923,0.24154 h -1.299717 v -4.02567 z m -0.701617,0.56359 v 2.89849 h 0.695866 q 0.396816,0 0.707368,-0.16678 0.316302,-0.16678 0.488831,-0.49458 0.17828,-0.32781 0.17828,-0.78788 0,-0.46008 -0.17828,-0.78789 -0.172529,-0.3278 -0.488831,-0.49458 -0.310552,-0.16678 -0.707368,-0.16678 z"
         style="font-style:normal;font-variant:normal;font-weight:normal;font-stretch:normal;font-family:'GT Eesti Display';-inkscape-font-specification:'GT Eesti Display';fill:#ffffff;fill-opacity:1;stroke-width:0.14377394"
         id="path6353"
         inkscape:connector-curvature="0" />
      <path
         d="m 53.271958,289.88951 q 0.598099,0 0.931655,0.38532 0.339306,0.37956 0.339306,1.02942 v 0.092 h -2.058843 q 0.01725,0.35081 0.23579,0.56935 0.224287,0.21279 0.569344,0.21279 0.287548,0 0.47733,-0.13228 0.195533,-0.13802 0.339306,-0.33355 l 0.396817,0.37381 q -0.460077,0.63261 -1.201951,0.63261 -0.41982,0 -0.736122,-0.17253 -0.310552,-0.17828 -0.483081,-0.49459 -0.166778,-0.32205 -0.166778,-0.74187 0,-0.40257 0.161027,-0.72462 0.166778,-0.3278 0.471579,-0.51184 0.310552,-0.18403 0.724621,-0.18403 z m -0.03451,0.51759 q -0.293299,0 -0.483081,0.14953 -0.189781,0.14952 -0.24154,0.43132 h 1.420487 q -0.01725,-0.27605 -0.207035,-0.42557 -0.18403,-0.15528 -0.488831,-0.15528 z"
         style="font-style:normal;font-variant:normal;font-weight:normal;font-stretch:normal;font-family:'GT Eesti Display';-inkscape-font-specification:'GT Eesti Display';fill:#ffffff;fill-opacity:1;stroke-width:0.14377394"
         id="path6355"
         inkscape:connector-curvature="0" />
      <path
         d="m 57.264202,289.97578 -1.069678,2.65694 h -0.529088 l -1.063927,-2.65694 h 0.66136 l 0.667111,1.98408 0.672862,-1.98408 z"
         style="font-style:normal;font-variant:normal;font-weight:normal;font-stretch:normal;font-family:'GT Eesti Display';-inkscape-font-specification:'GT Eesti Display';fill:#ffffff;fill-opacity:1;stroke-width:0.14377394"
         id="path6357"
         inkscape:connector-curvature="0" />
      <path
         d="m 60.124494,292.06913 v 0.56359 h -2.886981 v -0.56359 l 2.081847,-2.89849 h -1.897816 v -0.56359 h 2.616685 v 0.56359 l -2.081846,2.89849 z"
         style="font-style:normal;font-variant:normal;font-weight:normal;font-stretch:normal;font-family:'GT Eesti Display';-inkscape-font-specification:'GT Eesti Display';fill:#ffffff;fill-opacity:1;stroke-width:0.14377394"
         id="path6359"
         inkscape:connector-curvature="0" />
      <path
         d="m 61.70412,289.88951 q 0.414069,0 0.741874,0.18403 0.333555,0.18404 0.523337,0.50609 0.189782,0.32205 0.189782,0.72462 0,0.40257 -0.189782,0.72462 -0.189782,0.32205 -0.523337,0.50608 -0.327805,0.18404 -0.741874,0.18404 -0.414069,0 -0.747624,-0.18404 -0.327805,-0.18403 -0.517587,-0.50608 -0.189781,-0.32205 -0.189781,-0.72462 0,-0.40257 0.189781,-0.72462 0.189782,-0.32205 0.517587,-0.50609 0.333555,-0.18403 0.747624,-0.18403 z m 0,0.5521 q -0.379563,0 -0.621103,0.23579 -0.23579,0.23578 -0.23579,0.62685 0,0.39106 0.23579,0.62685 0.24154,0.23579 0.621103,0.23579 0.379563,0 0.615353,-0.23579 0.24154,-0.23579 0.24154,-0.62685 0,-0.39107 -0.24154,-0.62685 -0.23579,-0.23579 -0.615353,-0.23579 z"
         style="font-style:normal;font-variant:normal;font-weight:normal;font-stretch:normal;font-family:'GT Eesti Display';-inkscape-font-specification:'GT Eesti Display';fill:#ffffff;fill-opacity:1;stroke-width:0.14377394"
         id="path6361"
         inkscape:connector-curvature="0" />
      <path
         d="m 65.122525,289.88951 q 0.460076,0 0.730371,0.2703 0.270295,0.26454 0.270295,0.83964 v 1.63327 h -0.563594 v -1.5355 q 0,-0.64411 -0.609601,-0.64411 -0.327805,0 -0.517586,0.21853 -0.189782,0.21854 -0.189782,0.69012 v 1.27096 h -0.563594 v -2.65694 h 0.563594 v 0.40257 h 0.0115 q 0.276046,-0.48884 0.868395,-0.48884 z"
         style="font-style:normal;font-variant:normal;font-weight:normal;font-stretch:normal;font-family:'GT Eesti Display';-inkscape-font-specification:'GT Eesti Display';fill:#ffffff;fill-opacity:1;stroke-width:0.14377394"
         id="path6363"
         inkscape:connector-curvature="0" />
      <path
         d="m 67.96386,289.88951 q 0.598099,0 0.931655,0.38532 0.339306,0.37956 0.339306,1.02942 v 0.092 h -2.058843 q 0.01725,0.35081 0.23579,0.56935 0.224287,0.21279 0.569345,0.21279 0.287548,0 0.477329,-0.13228 0.195533,-0.13802 0.339307,-0.33355 l 0.396816,0.37381 q -0.460077,0.63261 -1.20195,0.63261 -0.41982,0 -0.736123,-0.17253 -0.310552,-0.17828 -0.483081,-0.49459 -0.166777,-0.32205 -0.166777,-0.74187 0,-0.40257 0.161026,-0.72462 0.166778,-0.3278 0.471579,-0.51184 0.310552,-0.18403 0.724621,-0.18403 z m -0.03451,0.51759 q -0.293299,0 -0.48308,0.14953 -0.189782,0.14952 -0.241541,0.43132 h 1.420487 q -0.01725,-0.27605 -0.207035,-0.42557 -0.18403,-0.15528 -0.488831,-0.15528 z"
         style="font-style:normal;font-variant:normal;font-weight:normal;font-stretch:normal;font-family:'GT Eesti Display';-inkscape-font-specification:'GT Eesti Display';fill:#ffffff;fill-opacity:1;stroke-width:0.14377394"
         id="path6365"
         inkscape:connector-curvature="0" />
    </g>
  </g>
</svg>
