<svg xmlns="http://www.w3.org/2000/svg"
	width="512"
	height="512"
    viewBox="0 0 512 512">
  <path
      d="M234,76.5c-3.6,0.7 -7.7,1.8 -9.2,2.4l-2.8,1.1 0,10.7 -0.1,10.8 -4.4,2.7c-4.2,2.5 -4.7,2.6 -7.9,1.3 -1.8,-0.8 -6.3,-2.5 -9.8,-3.9l-6.5,-2.4 -4,5.2c-2.2,2.8 -5.2,7.2 -6.7,9.8l-2.8,4.8 7.5,8.3 7.6,8.3 -1,4.6 -1,4.6 -9.7,3.9c-7.9,3.2 -9.8,4.3 -10,6.2 -0.4,2.8 2.5,17.4 4.3,21.8l1.4,3.4 6.8,-0.6c3.7,-0.3 8.4,-0.8 10.3,-1 3.3,-0.4 3.7,-0.1 6.3,4.3l2.9,4.6 -3.6,9.1c-2,5 -3.6,9.6 -3.6,10.2 0,1.4 7.5,6.9 15,11.2l5.6,3.1 7.4,-7.6 7.5,-7.5 4.5,0.6c2.5,0.4 5,1.1 5.5,1.6 0.6,0.6 2.4,4.9 4.2,9.7l3.1,8.7 6.6,-0.2c3.6,-0 9.7,-1 13.4,-2.2l6.9,-2.1 -0.5,-10.7 -0.4,-10.8 4.5,-2.8 4.5,-2.8 9.7,4.1c5.4,2.2 9.8,4 9.9,4 0.7,-0 8.2,-10.8 10.6,-15.2l2.9,-5.3 -7.5,-7.6 -7.5,-7.6 1.3,-5.3 1.3,-5.3 9,-3.4c5,-1.9 9.3,-3.8 9.7,-4.1 0.9,-0.9 -0.8,-13 -2.9,-20.5l-1.6,-5.7 -10.8,-0 -10.8,-0 -2.6,-3.7c-1.4,-2.1 -2.5,-4.3 -2.5,-4.9 0,-0.7 1.8,-5.1 4,-9.9 2.2,-4.8 4,-8.9 4,-9 0,-0.7 -12.3,-9.1 -16.8,-11.5l-4.3,-2.4 -7.7,7.7c-4.3,4.3 -8.1,7.5 -8.4,7.2 -0.3,-0.3 -2.4,-0.9 -4.7,-1.3l-4.2,-0.7 -4.1,-9.8 -4.1,-9.7 -3.6,0.1c-2,-0 -6.5,0.7 -10.1,1.4zM263,122.8c2.5,1.3 6.4,4.2 8.7,6.4 12,11.7 11.9,32.1 -0.2,44 -9.3,9.2 -24.9,11.7 -36.3,5.9 -18.2,-9.3 -22.5,-34.8 -8.4,-49.4 6.9,-7.2 13.2,-9.7 23.7,-9.4 6.1,0.1 9.1,0.7 12.5,2.5z"
      fill="#FFFFFF"
      stroke="#FFFFFFFF"/>
  <path
      d="M145.5,210.4l-5.8,12.5 -4.1,0.6c-11.1,1.7 -9.2,2.6 -19,-9 -7.4,-8.7 -9.3,-10.4 -11,-9.9 -7.3,2.3 -25.6,13.5 -25.6,15.7 0,0.7 1.8,6.7 4,13.2 2.2,6.5 4,12.2 4,12.6 0,0.3 -1.9,3 -4.2,5.9l-4.3,5.2 -8,-0.6c-4.4,-0.4 -10.5,-0.9 -13.7,-1.3l-5.6,-0.5 -1.9,4.3c-2.3,5.1 -5.9,18.4 -6.8,25l-0.6,4.6 12.4,5.7 12.4,5.8 1.2,7c0.6,3.9 1,7.2 0.9,7.3 -3.7,2.5 -20.8,17 -20.8,17.7 0,1.5 8.2,17.2 11.4,21.8 1.7,2.4 3.4,4.8 3.7,5.3 0.4,0.5 6.7,-1 14.2,-3.3l13.5,-4.3 4.3,3.7c2.3,2 4.7,3.6 5.2,3.6 0.9,-0 0.4,13.2 -0.9,24.1l-0.6,4.6 6.4,2.5c5.9,2.4 16,5 23.8,6.2l3.6,0.6 5.4,-11.6c2.9,-6.4 6,-12.3 6.8,-13 0.7,-0.8 2.8,-1.4 4.7,-1.4 6.1,-0 6.6,-0.6 4.8,-5.3 -0.9,-2.5 -1.8,-9 -2.1,-16l-0.4,-11.8 -6.7,0.7c-12.2,1.2 -23.7,-3.1 -32.8,-12.2 -16.1,-16 -16,-41.3 0.2,-57.8 9.2,-9.4 23.6,-14 35.8,-11.6 7.2,1.4 15,5 20.3,9.3 3.2,2.6 10.6,12.7 11.6,15.8 0.2,0.6 3.7,-1.2 7.8,-4 12.4,-8.2 22,-11.4 41.2,-13.7 2.8,-0.3 4.8,-1.1 5.2,-2 0.3,-0.8 -0.8,-4.3 -2.5,-7.7 -3.3,-6.5 -11.4,-19.3 -12.9,-20.2 -0.4,-0.3 -6.5,1.5 -13.5,4l-12.8,4.5 -5.6,-4.2c-3.1,-2.3 -5.7,-4.2 -5.7,-4.3 -0.1,-0 0.5,-5 1.2,-11 2,-16.5 2,-16.2 -2.3,-18.1 -5.8,-2.4 -19.2,-6.1 -24.9,-6.8l-5.1,-0.6 -5.8,12.4z"
      fill="#FFFFFF"
      stroke="#FFFFFFFF"/>
  <path
      d="M311.6,223.5c-27.9,5.3 -51.4,21.4 -65.7,45.1l-4.7,7.8 -9.4,0.2c-18.6,0.5 -33.9,7.3 -47.3,20.8 -13.2,13.3 -19.7,29.1 -19.7,48.1 0,31.8 20.9,58.6 51.8,66.5 7.4,1.9 11.5,2 104.2,2 107.2,-0 102.1,0.3 115.7,-6.8 8.8,-4.7 19,-14.6 23.9,-23.3 9.5,-17.2 9.9,-37.9 1.2,-56 -6.9,-14.3 -19.5,-25.2 -34.5,-29.9l-5.4,-1.7 -2.6,-7.9c-10.8,-31.8 -35.8,-55.2 -68.1,-63.4 -11.1,-2.9 -28.6,-3.5 -39.4,-1.5z"
      fill="#FFFFFF"
      stroke="#FFFFFFFF"/>
</svg>
